# xmcd
#
# Track frame offsets:
#	150
#	17764
#	50269
#	63789
#	84838
#	109659
#	126909
#	145425
#	159208
#	177205
#	192934
#
# Disc length: 2795 seconds
#
# Revision: 1
# Processed by: cddbd v1.4PL0 Copyright (c) Steve Scherf et al.
# Submitted via: audiograbber 1.81.02
#
DISCID=860ae90b
DTITLE=Joint Venture - The fatter the better
DYEAR=1997
DGENRE=Blues
TTITLE0=Just a day
TTITLE1=1997
TTITLE2=Bad trip
TTITLE3=Natural born boogie
TTITLE4=if I had a rocketlauncher
TTITLE5=The only thing
TTITLE6=My friends
TTITLE7=Lost Love
TTITLE8=Is it love you want
TTITLE9=The choice
TTITLE10=Polk salad Annie
EXTD=Joint Venture is: \nWillem Been: bas en zang\nJeroen Hogenelst: gitaar en 
EXTD=zang\nDon Jasper: Drums\nRonald Wolters: gitaar, sax en zang\nRandolph Vaf
EXTD=i: bluesharp en zang\nSimon Koops: geluid en techniek
EXTT0=
EXTT1=
EXTT2=
EXTT3=
EXTT4=
EXTT5=
EXTT6=
EXTT7=
EXTT8=
EXTT9=
EXTT10=
PLAYORDER=
